<svg width="102" height="117" viewBox="0 0 102 117" fill="none" xmlns="http://www.w3.org/2000/svg">
<path d="M16.24 115V11.82C15.4 13.0333 14.2333 14.2 12.74 15.32C11.2467 16.3467 9.66 17.28 7.98 18.12C6.3 18.8667 4.71333 19.52 3.22 20.08C1.82 20.64 0.746667 21.0133 1.04308e-07 21.2V14.76C1.21333 14.3867 2.56667 13.8267 4.06 13.08C5.64667 12.3333 7.23333 11.4 8.82 10.28C10.4067 9.06666 11.9467 7.76 13.44 6.36C14.9333 4.86666 16.24 3.27999 17.36 1.59999H23.8V115H16.24ZM75.3309 116.54C68.4243 116.54 63.0576 115.093 59.2309 112.2C55.4043 109.307 52.7443 105.34 51.2509 100.3C49.7576 95.26 49.0109 89.52 49.0109 83.08V33.52C49.0109 26.9867 49.8043 21.2467 51.3909 16.3C52.9776 11.3533 55.6843 7.48 59.5109 4.67999C63.4309 1.78666 68.7043 0.339991 75.3309 0.339991C82.0509 0.339991 87.3243 1.78666 91.1509 4.67999C95.0709 7.48 97.8243 11.3533 99.4109 16.3C100.998 21.2467 101.791 26.9867 101.791 33.52V83.08C101.791 89.52 101.044 95.26 99.5509 100.3C98.0576 105.34 95.3976 109.307 91.5709 112.2C87.7443 115.093 82.3309 116.54 75.3309 116.54ZM75.3309 110.8C80.1843 110.8 83.9643 109.68 86.6709 107.44C89.3776 105.107 91.2909 101.98 92.4109 98.06C93.5309 94.0467 94.0909 89.4733 94.0909 84.34V32.4C94.0909 27.2667 93.5309 22.74 92.4109 18.82C91.2909 14.8067 89.3776 11.68 86.6709 9.44C83.9643 7.19999 80.1843 6.07999 75.3309 6.07999C70.5709 6.07999 66.8376 7.19999 64.1309 9.44C61.4243 11.68 59.4643 14.8067 58.2509 18.82C57.1309 22.74 56.5709 27.2667 56.5709 32.4V84.34C56.5709 89.4733 57.1309 94.0467 58.2509 98.06C59.4643 101.98 61.4243 105.107 64.1309 107.44C66.8376 109.68 70.5709 110.8 75.3309 110.8Z" fill="white"/>
</svg>
