<svg width="18" height="17" viewBox="0 0 18 17" fill="none" xmlns="http://www.w3.org/2000/svg">
<path fill-rule="evenodd" clip-rule="evenodd" d="M14.0777 4.83119C14.7363 5.39756 14.5774 6.66259 13.7226 7.65672C12.8678 8.65085 11.6409 8.99763 10.9822 8.43126C10.3235 7.8649 10.4825 6.59987 11.3373 5.60574C12.192 4.61161 13.419 4.26483 14.0777 4.83119ZM7.56458 6.45843C8.38441 6.74569 9.40047 5.97551 9.83402 4.73817C10.2676 3.50084 9.95443 2.26492 9.13461 1.97765C8.31478 1.69039 7.29871 2.46058 6.86516 3.69791C6.43161 4.93525 6.74475 6.17117 7.56458 6.45843ZM10.2506 12.8153C9.82016 12.0286 9.62074 11.1332 9.67964 10.2389C9.72241 9.39582 9.41464 8.65308 8.78652 8.29043C8.15841 7.92779 7.36381 8.03408 6.65256 8.4912C5.90752 8.98936 5.03233 9.26438 4.13587 9.28496C3.50685 9.28505 3.02519 9.46102 2.81401 9.82679C2.28971 10.7349 3.56717 12.4546 5.67099 13.6692C7.77481 14.8839 9.90281 15.1303 10.4271 14.2222C10.6517 13.8507 10.5792 13.3413 10.2506 12.8153ZM13.7593 12.2898C14.602 11.6955 14.9658 10.7608 14.5718 10.2021C14.1778 9.64334 13.1752 9.67213 12.3325 10.2664C11.4898 10.8606 11.126 11.7953 11.52 12.3541C11.914 12.9128 12.9166 12.884 13.7593 12.2898ZM5.29734 6.20714C5.20406 7.23409 4.57647 8.01646 3.89558 7.95461C3.21468 7.89277 2.73833 7.01012 2.8316 5.98317C2.92488 4.95623 3.55248 4.17386 4.23337 4.2357C4.91426 4.29755 5.39062 5.18019 5.29734 6.20714Z" fill="white"/>
</svg>
