<svg width="22" height="22" viewBox="0 0 22 22" fill="none" xmlns="http://www.w3.org/2000/svg">
<path fill-rule="evenodd" clip-rule="evenodd" d="M8.49454 4.32571C9.21208 3.83605 10.3929 4.31701 11.1319 5.39997C11.8709 6.48294 11.8883 7.7578 11.1708 8.24746C10.4532 8.73712 9.27245 8.25615 8.53343 7.17319C7.7944 6.09023 7.77699 4.81537 8.49454 4.32571ZM8.38062 11.038C8.87028 10.3205 8.38932 9.13969 7.30636 8.40066C6.2234 7.66164 4.94853 7.64423 4.45888 8.36177C3.96922 9.07932 4.45018 10.2601 5.53314 10.9991C6.6161 11.7381 7.89096 11.7556 8.38062 11.038ZM15.2161 10.0888C14.3448 10.301 13.4283 10.2618 12.5797 9.97348C11.7764 9.71396 10.9793 9.819 10.4665 10.3319C9.9536 10.8447 9.85062 11.6398 10.1081 12.4451C10.3964 13.2937 10.4356 14.2102 10.2234 15.0815C10.0607 15.6891 10.106 16.1999 10.4047 16.4985C11.1462 17.24 13.1379 16.4511 14.8556 14.7334C16.5734 13.0156 17.3622 11.0239 16.6207 10.2824C16.32 9.96936 15.8092 9.90757 15.2161 10.0888ZM15.6166 6.56363C15.2607 5.59581 14.452 5.00253 13.8103 5.2385C13.1686 5.47447 12.9369 6.45033 13.2928 7.41814C13.6487 8.38596 14.4574 8.97924 15.0991 8.74327C15.7408 8.5073 15.9725 7.53144 15.6166 6.56363ZM7.55109 13.163C8.5189 13.5189 9.11218 14.3276 8.87621 14.9692C8.64025 15.6109 7.66439 15.8426 6.69657 15.4867C5.72876 15.1308 5.13548 14.3221 5.37145 13.6804C5.60742 13.0387 6.58327 12.8071 7.55109 13.163Z" fill="white"/>
</svg>
