<svg width="48" height="47" viewBox="0 0 48 47" fill="none" xmlns="http://www.w3.org/2000/svg">
<path fill-rule="evenodd" clip-rule="evenodd" d="M18.6888 4.08586C20.5285 -1.35862 28.2126 -1.35862 30.0523 4.08586C30.6073 5.73525 32.487 6.51733 34.0468 5.74528C39.1862 3.1985 44.6205 8.648 42.0808 13.8017C41.3109 15.3659 42.0908 17.2459 43.7356 17.8074C49.1649 19.6523 49.1649 27.3578 43.7356 29.2027C42.0908 29.7591 41.3109 31.6442 42.0808 33.2083C44.6205 38.362 39.1862 43.8115 34.0468 41.2647C32.487 40.4927 30.6073 41.2748 30.0523 42.9242C28.2126 48.3686 20.5285 48.3686 18.6888 42.9242C18.1338 41.2748 16.2541 40.4927 14.6943 41.2647C9.55491 43.8115 4.1206 38.362 6.66028 33.2083C7.43018 31.6442 6.65028 29.7591 5.00549 29.2027C-0.423826 27.3578 -0.423826 19.6523 5.00549 17.8074C6.65028 17.2509 7.43018 15.3659 6.66028 13.8017C4.1206 8.648 9.55491 3.1985 14.6943 5.74528C16.2541 6.51733 18.1338 5.73525 18.6888 4.08586ZM27.0927 5.08853C26.2128 2.4816 22.5333 2.4816 21.6534 5.08853C20.4885 8.53269 16.569 10.162 13.3144 8.55274C10.8497 7.3345 8.25008 9.94144 9.46492 12.413C11.0697 15.6717 9.44493 19.6071 6.01036 20.7752C3.41069 21.6576 3.41069 25.3474 6.01036 26.2298C9.44493 27.3979 11.0697 31.3283 9.46492 34.592C8.25008 37.0636 10.8497 39.6705 13.3144 38.4523C16.564 36.843 20.4885 38.4723 21.6534 41.9165C22.5333 44.5234 26.2128 44.5234 27.0927 41.9165C28.2576 38.4723 32.1771 36.843 35.4316 38.4523C37.8963 39.6705 40.496 37.0636 39.2812 34.592C37.6764 31.3333 39.3012 27.3979 42.7357 26.2298C45.3354 25.3474 45.3354 21.6576 42.7357 20.7752C39.3012 19.6071 37.6764 15.6767 39.2812 12.413C40.496 9.94144 37.8963 7.3345 35.4316 8.55274C32.1821 10.162 28.2576 8.53269 27.0927 5.08853Z" fill="white"/>
</svg>
